<?xml version="1.0" encoding="UTF-8" standalone="no"?><!DOCTYPE svg PUBLIC "-//W3C//DTD SVG 1.1//EN" "http://www.w3.org/Graphics/SVG/1.1/DTD/svg11.dtd"><svg width="100%" height="100%" viewBox="0 0 2084 2084" version="1.1" xmlns="http://www.w3.org/2000/svg" xmlns:xlink="http://www.w3.org/1999/xlink" xml:space="preserve" xmlns:serif="http://www.serif.com/" style="fill-rule:evenodd;clip-rule:evenodd;stroke-linejoin:round;stroke-miterlimit:2;"><g id="Travel"><circle cx="1041.67" cy="1041.67" r="1027.78" style="fill:#3396ff;"/></g><clipPath id="_clip1"><rect id="satellite-dish-solid.svg" x="401.378" y="153.933" width="1530.68" height="1530.68"/></clipPath><g clip-path="url(#_clip1)"><path d="M1931.99,1059.99c0.05,0.896 0.075,1.792 0.075,2.689c0,26.324 -21.591,48.017 -47.915,48.142l-96.007,0c-25.047,-0.075 -45.995,-19.849 -47.513,-44.851c-22.425,-387.21 -333.384,-701.164 -720.308,-722.094c-25.098,-1.337 -44.987,-22.428 -44.85,-47.561l-0,-94.466c0.108,-26.32 21.794,-47.918 48.114,-47.918c0.906,0 1.811,0.026 2.716,0.077c487.976,25.696 880.273,417.998 905.688,905.982Zm-287.039,-0.887c0.072,1.083 0.109,2.168 0.109,3.254c-0,26.516 -21.761,48.361 -48.276,48.464l-96.287,0c-24.687,-0.181 -45.419,-19.365 -47.513,-43.963c-20.65,-230.233 -203.647,-415.289 -433.269,-434.163c-24.787,-1.779 -44.233,-22.663 -44.243,-47.514l-0,-96.008c-0,-0.004 -0,-0.008 -0,-0.012c-0,-26.461 21.774,-48.235 48.234,-48.235c1.163,0 2.324,0.042 3.484,0.126c329.226,25.415 592.626,288.819 617.761,618.051Z" style="fill:#fff;fill-rule:nonzero;"/></g></svg>